<?xml version="1.0" encoding="UTF-8" standalone="no"?>
<!-- Created with Inkscape (http://www.inkscape.org/) -->

<svg
   xmlns:dc="http://purl.org/dc/elements/1.1/"
   xmlns:cc="http://creativecommons.org/ns#"
   xmlns:rdf="http://www.w3.org/1999/02/22-rdf-syntax-ns#"
   xmlns:svg="http://www.w3.org/2000/svg"
   xmlns="http://www.w3.org/2000/svg"
   xmlns:sodipodi="http://sodipodi.sourceforge.net/DTD/sodipodi-0.dtd"
   xmlns:inkscape="http://www.inkscape.org/namespaces/inkscape"
   id="svg3119"
   version="1.1"
   inkscape:version="0.48.4 r9939"
   width="2109.6001"
   height="698.20459"
   sodipodi:docname="swan.svg">
  <metadata
     id="metadata3125">
    <rdf:RDF>
      <cc:Work
         rdf:about="">
        <dc:format>image/svg+xml</dc:format>
        <dc:type
           rdf:resource="http://purl.org/dc/dcmitype/StillImage" />
        <dc:title></dc:title>
      </cc:Work>
    </rdf:RDF>
  </metadata>
  <defs
     id="defs3123" />
  <sodipodi:namedview
     pagecolor="#ffffff"
     bordercolor="#666666"
     borderopacity="0"
     objecttolerance="10"
     gridtolerance="10"
     guidetolerance="10"
     inkscape:pageopacity="0"
     inkscape:pageshadow="2"
     inkscape:window-width="1364"
     inkscape:window-height="715"
     id="namedview3121"
     showgrid="false"
     inkscape:zoom="0.25"
     inkscape:cx="997.38555"
     inkscape:cy="759.22697"
     inkscape:window-x="0"
     inkscape:window-y="0"
     inkscape:window-maximized="1"
     inkscape:current-layer="svg3119"
     fit-margin-top="0"
     fit-margin-left="0"
     fit-margin-right="0"
     fit-margin-bottom="0.2"
     inkscape:showpageshadow="true"
     showborder="true">
    <inkscape:grid
       type="xygrid"
       id="grid3424"
       empspacing="5"
       visible="true"
       enabled="true"
       snapvisiblegridlinesonly="true"
       originx="1064px"
       originy="440.19994px" />
  </sodipodi:namedview>
  <g
     id="g3189"
     transform="translate(-4.5125283,-641.69295)">
    <path
       style="fill:#000000"
       d="m 707.96086,1261.0033 c 26.97834,-27.9547 42.80007,-60.1577 50.02399,-101.8172 2.51162,-14.4842 3.10787,-54.2168 1.03524,-68.9861 -3.81025,-27.1514 -11.7656,-48.3222 -27.82935,-74.0595 -19.30415,-30.92899 -47.85923,-62.91559 -93.766,-105.03401 -35.48095,-32.55296 -57.3702,-59.21818 -69.96031,-85.2248 -8.81284,-18.20413 -12.04353,-30.95676 -12.03268,-47.49706 0.009,-13.57802 2.55584,-24.58083 8.54966,-36.93462 3.6725,-7.56935 4.89268,-9.24811 6.71563,-9.23959 1.74186,0.008 2.83612,1.31798 5.01745,6.00591 3.62821,7.79743 13.06039,17.83137 20.42899,21.73231 8.72263,4.61778 15.60862,6.31005 28.28126,6.95031 l 11.5,0.58101 12.5,12.11702 c 33.0758,32.06242 59.3872,47.1784 88.3065,50.73237 15.66587,1.92522 15.49828,0.27232 -1.51342,-14.92647 -22.9172,-20.47493 -43.52959,-47.08339 -57.31615,-73.98922 l -4.46488,-8.71365 0.94145,-10 c 1.73591,-18.43868 -1.56753,-35.98997 -8.9348,-47.47086 -4.55502,-7.09838 -14.47574,-15.97606 -22.55004,-20.17916 -11.41282,-5.94099 -30.95258,-11.62671 -41.1765,-11.98162 -13.49129,-2.00341 -29.53632,-1.84131 -41.82348,0.63802 -41.18101,8.39216 -74.02165,36.84704 -87.36376,68.89622 -5.92917,14.24252 -7.50802,23.13769 -7.47209,42.0974 0.0369,19.44478 2.2511,32.54413 9.13066,54.01658 9.36869,29.24147 47.54983,86.18379 94.17097,140.44403 6.36105,7.40333 16.22809,18.87833 21.92675,25.5 30.1033,34.97908 46.57175,84.40458 40.75797,122.32388 -4.52103,29.4875 -20.78908,58.9008 -43.4047,78.4775 -21.88083,18.9406 -40.48685,27.738 -58.66434,27.738 -14.9646,0 -25.4831,-4.6517 -37.05014,-16.385 -15.89803,-16.1265 -23.72253,-35.1407 -23.70913,-57.615 0.0142,-23.8082 9.29783,-45.6324 27.50599,-64.6619 17.17504,-17.9497 41.81313,-30.1424 67.47914,-33.3933 4.7982,-0.6078 11.11965,-1.4065 14.04766,-1.7749 l 5.32367,-0.6699 -4.04961,-8 C 558.07927,980.31455 472.67338,910.73155 373.92474,854.00749 c -83.71822,-48.09015 -169.01762,-82.46942 -235,-94.71496 -37.15057,-6.8947 -66.12181,-9.67318 -92.5,-1.90052 -24.743059,7.29085 -34.367456,34.85697 -25.528188,40.05425 26.045491,3.54544 54.610509,5.73167 75.489448,8.8493 81.88099,12.42564 163.90313,44.87755 239.23209,94.65172 10.60608,7.00805 13.03154,9.08584 14.75,12.6357 1.13116,2.33667 2.05665,5.62004 2.05665,7.29639 0,6.07887 -8.23976,10.82712 -14.81249,8.53585 -1.57449,-0.54887 -6.42329,-3.22547 -10.77511,-5.94801 -64.33211,-40.24672 -135.93346,-69.15143 -197.4124,-79.69331 -26.13806,-4.48193 -32.257019,-5.61062 -65.232233,-6.10405 -21.268554,-0.31825 -46.040188,-1.44547 -50.222198,5.35108 -5.0421008,8.19436 -15.0509475,26.50135 -5.4437384,27.1561 l 20.1687594,1.37454 c 55.50647,3.78286 98.77332,8.96914 144.22941,24.12721 44.14294,14.72017 81.74702,33.88191 118.12825,60.19404 10.36326,7.49507 13.20207,11.13571 11.89481,15.25453 -1.67299,5.27112 -8.63693,5.55124 -18.20601,0.73232 -11.49401,-5.78829 -38.95156,-18.05033 -51.77976,-23.12389 -36.07766,-14.26873 -68.79879,-23.34324 -103.03729,-28.5752 -20.08361,-3.06895 -67.101442,-6.76864 -87,-5.0139 -16.018267,1.41256 -24.451458,2.70178 -33.6238303,8.86842 -5.9570771,4.00498 -3.4396882,24.62804 -1.7003886,30.10165 l 14.5156629,0.0125 c 49.691639,0.0428 106.941196,6.58907 154.617076,23.45975 35.76272,12.65507 91.22616,40.1188 97.73734,48.3964 2.8528,3.6268 2.52857,8.294 -0.79586,11.4562 -4.76568,4.533 -7.03426,4.4481 -18.22676,-0.6823 -44.09891,-20.2142 -84.80222,-32.1614 -126.52324,-37.13686 -18.82164,-2.24458 -59.41516,-3.75947 -77,-1.5301 -18.08772,2.29316 -37.271851,5.36086 -40.810991,7.51316 -5.2895603,3.2168 -0.0069,20.9933 0.90719,31.4366 0.101371,1.1582 0.50658,3.4508 0.50658,3.4508 0.27862,0 4.89112,-0.6517 10.25,-1.4482 28.88333,-4.2931 68.473706,-5.1752 94.147221,-2.8444 47.46261,4.3091 89.74673,17.9916 124.70071,40.3514 11.72799,7.5023 14.03172,14.6286 5.67118,17.5431 -5.3173,1.8536 -9.41177,1.2723 -19.60179,-2.783 -33.2691,-13.24 -70.33125,-22.7042 -106.7701,-27.2649 -12.19069,-1.5257 -58.313215,-1.5865 -67.664385,-0.089 -8.67682,1.3894 -24.601872,-0.041 -30.649342,5.8494 -8.31321,8.0973 0.331842,21.9377 2.793112,33.7936 l 1.920477,5.1376 7.3356,-1.6266 c 25.576182,-5.6711 80.277368,-1.6309 104.264538,2.024 28.35561,4.3205 54.01096,11.7927 74.24456,21.624 9.91617,4.8182 11.77869,6.1416 15.76582,11.202 12.88883,16.3582 8.12877,30.0956 -13.27276,38.3046 -7.20395,2.7633 -27.82427,3.7889 -40.40208,2.0096 -28.44479,-4.024 -65.86433,-16.9004 -116.283335,-40.0143 C 46.90564,1136.7278 36.6833,1132.2 36.26062,1132.2 c -1.51633,0 6.41009,20.7693 13.16663,34.5 12.15656,24.7047 26.7015,44.4099 49.45457,67 7.75554,7.7 17.91291,16.9178 22.57195,20.4839 12.32915,9.4371 19.28342,16.7101 20.77572,21.7278 2.34377,7.8807 0.008,12.6124 -12.72966,25.7883 -5.31711,5.5 -11.04937,12.025 -12.73834,14.5 -3.82751,5.6088 -9.33675,16.4589 -9.33675,18.3882 0,0.7948 1.4375,3.1721 0.75,3.4495 -0.6875,0.2774 103.625,0.2451 239,0.2337 169.19247,1.5893 263.08319,13.9499 360.78612,-77.2681 z M 762.01347,1119.2 c 0,-9.625 -0.14998,-13.5625 -0.3333,-8.75 -0.18331,4.8125 -0.18331,12.6875 0,17.5 0.18332,4.8125 0.3333,0.875 0.3333,-8.75 z"
       id="path3191"
       inkscape:connector-curvature="0"
       sodipodi:nodetypes="cssssssscssscsssscsssccssssssssssssscssssccsssssssssssssssssscssssssssasssssssssscssssssssssssssssccssss"
       inkscape:export-xdpi="90"
       inkscape:export-ydpi="90" />
    <flowRoot
       xml:space="preserve"
       id="flowRoot3346"
       style="font-size:16px;font-style:normal;font-weight:normal;line-height:125%;letter-spacing:0px;word-spacing:0px;fill:#000000;fill-opacity:1;stroke:none;font-family:Sans"><flowRegion
         id="flowRegion3348"><rect
           id="rect3350"
           width="140.00714"
           height="18.384777"
           x="784.88855"
           y="292.1207" /></flowRegion><flowPara
         id="flowPara3352"></flowPara></flowRoot>    <flowRoot
       xml:space="preserve"
       id="flowRoot3354"
       style="font-size:16px;font-style:normal;font-weight:normal;line-height:125%;letter-spacing:0px;word-spacing:0px;fill:#000000;fill-opacity:1;stroke:none;font-family:Sans"><flowRegion
         id="flowRegion3356"><rect
           id="rect3358"
           width="832.9718"
           height="405.8793"
           x="920.65302"
           y="171.91255" /></flowRegion><flowPara
         id="flowPara3360"></flowPara></flowRoot>    <flowRoot
       xml:space="preserve"
       id="flowRoot3362"
       style="font-size:16px;font-style:normal;font-weight:normal;line-height:125%;letter-spacing:0px;word-spacing:0px;fill:#000000;fill-opacity:1;stroke:none;font-family:Sans"><flowRegion
         id="flowRegion3364"><rect
           id="rect3366"
           width="236.17366"
           height="39.59798"
           x="712.76361"
           y="201.61104" /></flowRegion><flowPara
         id="flowPara3368"></flowPara></flowRoot>    <text
       xml:space="preserve"
       style="font-size:16px;font-style:normal;font-weight:normal;line-height:125%;letter-spacing:0px;word-spacing:0px;fill:#000000;fill-opacity:1;stroke:none;font-family:Sans"
       x="765.66388"
       y="1273.9976"
       id="text3410"
       sodipodi:linespacing="125%"><tspan
         sodipodi:role="line"
         id="tspan3412"
         x="765.66388"
         y="1273.9976"
         style="font-size:900px;font-style:normal;font-variant:normal;font-weight:normal;font-stretch:normal;font-family:Amperzand;-inkscape-font-specification:Amperzand">wa</tspan></text>
    <text
       xml:space="preserve"
       style="font-size:900px;font-style:normal;font-variant:normal;font-weight:normal;font-stretch:normal;line-height:125%;letter-spacing:0px;word-spacing:0px;fill:#000000;fill-opacity:1;stroke:none;font-family:Amperzand;-inkscape-font-specification:Amperzand"
       x="1678.5126"
       y="1273.0975"
       id="text3414"
       sodipodi:linespacing="125%"><tspan
         sodipodi:role="line"
         id="tspan3416"
         x="1678.5126"
         y="1273.0975">n</tspan></text>
    <path
       sodipodi:type="arc"
       style="opacity:0;fill:none;stroke:#292a5b;stroke-width:6.11574793;stroke-linecap:round;stroke-linejoin:round;stroke-miterlimit:4;stroke-opacity:1;stroke-dasharray:none;stroke-dashoffset:0"
       id="path3422"
       sodipodi:cx="629.5"
       sodipodi:cy="696.20459"
       sodipodi:rx="14.5"
       sodipodi:ry="7"
       d="m 644,696.20459 c 0,3.86599 -6.49187,7 -14.5,7 -8.00813,0 -14.5,-3.13401 -14.5,-7 0,-3.86599 6.49187,-7 14.5,-7 8.00813,0 14.5,3.13401 14.5,7 z"
       transform="translate(4.5125283,1.4929414)" />
  </g>
</svg>
